<svg width="200" height="200" viewBox="0 0 200 200" fill="none" xmlns="http://www.w3.org/2000/svg">
<rect width="200" height="200" fill="white"/>
<g clip-path="url(#clip0_676_69)">
<path d="M45.058 69.7743L68.7969 52.5419L69.0572 77.6157L69.3412 102.69L45.3184 94.8481L21.3192 87.0301L45.058 69.7743Z" fill="#FCD9C6" stroke="#FCD9C6" stroke-width="2.2773" stroke-linecap="round" stroke-linejoin="round"/>
<path d="M103.967 26.9747L127.706 9.74231L127.99 34.8161L128.25 59.89L104.251 52.0485L80.2284 44.2306L103.967 26.9747Z" fill="#FCD9C6" stroke="#FCD9C6" stroke-width="2.2773" stroke-linecap="round" stroke-linejoin="round"/>
<path d="M39.8749 124.077L16.1361 141.333L15.8757 116.259L15.5917 91.1854L39.6146 99.0034L63.6137 106.845L39.8749 124.077Z" fill="#FCD9C6" stroke="#FCD9C6" stroke-width="2.2773" stroke-linecap="round" stroke-linejoin="round"/>
<path d="M98.7841 81.278L75.0453 98.5339L74.7849 73.4601L74.5009 48.3862L98.5238 56.2042L122.523 64.0456L98.7841 81.278Z" fill="#FCD9C6" stroke="#FCD9C6" stroke-width="2.2773" stroke-linecap="round" stroke-linejoin="round"/>
<path d="M157.717 38.4789L133.978 55.7348L133.694 30.661L133.434 5.58716L157.433 13.4051L181.456 21.2466L157.717 38.4789Z" fill="#FCD9C6" stroke="#FCD9C6" stroke-width="2.2773" stroke-linecap="round" stroke-linejoin="round"/>
<path d="M155.942 97.407L132.203 114.639L131.943 89.5655L131.659 64.4917L155.681 72.3331L179.681 80.1511L155.942 97.407Z" fill="#FCD9C6" stroke="#FCD9C6" stroke-width="2.2773" stroke-linecap="round" stroke-linejoin="round"/>
<path d="M97.0328 140.207L73.294 157.439L73.01 132.365L72.7496 107.291L96.7488 115.133L120.772 122.951L97.0328 140.207Z" fill="#FCD9C6" stroke="#FCD9C6" stroke-width="2.2773" stroke-linecap="round" stroke-linejoin="round"/>
<path d="M161.125 43.104L184.864 25.8481L185.124 50.922L185.408 75.9958L161.386 68.1778L137.386 60.3364L161.125 43.104Z" fill="#FCD9C6" stroke="#FCD9C6" stroke-width="2.2773" stroke-linecap="round" stroke-linejoin="round"/>
<path d="M102.192 85.9031L125.931 68.6472L126.215 93.721L126.499 118.795L102.476 110.977L78.4535 103.135L102.192 85.9031Z" fill="#FCD9C6" stroke="#FCD9C6" stroke-width="2.2773" stroke-linecap="round" stroke-linejoin="round"/>
<path d="M157.599 160.937L181.337 143.681L181.598 168.755L181.882 193.829L157.859 186.011L133.86 178.169L157.599 160.937Z" fill="#FCD9C6" stroke="#FCD9C6" stroke-width="2.2773" stroke-linecap="round" stroke-linejoin="round"/>
<path d="M100.441 144.808L124.18 127.576L124.464 152.649L124.724 177.723L100.725 169.882L76.702 162.064L100.441 144.808Z" fill="#FCD9C6" stroke="#FCD9C6" stroke-width="2.2773" stroke-linecap="round" stroke-linejoin="round"/>
<path d="M159.35 102.009L183.089 84.7762L183.373 109.85L183.633 134.924L159.634 127.082L135.611 119.264L159.35 102.009Z" fill="#FCD9C6" stroke="#FCD9C6" stroke-width="2.2773" stroke-linecap="round" stroke-linejoin="round"/>
<path d="M154.19 156.312L130.452 173.568L130.168 148.494L129.907 123.42L153.906 131.238L177.929 139.079L154.19 156.312Z" fill="#FCD9C6" stroke="#FCD9C6" stroke-width="2.2773" stroke-linecap="round" stroke-linejoin="round"/>
<path d="M43.283 128.702L67.0218 111.446L67.3058 136.52L67.5661 161.594L43.567 153.776L19.5441 145.935L43.283 128.702Z" fill="#FCD9C6" stroke="#FCD9C6" stroke-width="2.2773" stroke-linecap="round" stroke-linejoin="round"/>
</g>
<defs>
<clipPath id="clip0_676_69">
<rect width="171" height="189.415" fill="white" transform="translate(15 5)"/>
</clipPath>
</defs>
</svg>
